<?xml version="1.0" encoding="UTF-8" standalone="yes"?>
<!DOCTYPE svg PUBLIC "-//W3C//DTD SVG 1.1//EN" "http://www.w3.org/Graphics/SVG/1.1/DTD/svg11.dtd">

<svg width="200" height="200" viewBox="0 0 200 200" xmlns="http://www.w3.org/2000/svg" xmlns:xlink="http://www.w3.org/1999/xlink" version="1.1" baseProfile="full">
    <g transform="scale(1,-1) translate(0,-200)">
        <path d="M 40.375673 60.654790 L 57.788407 60.654790 L 57.788407 2.717159 L 46.507471 2.717159 L 46.507471 41.905638 Q 46.507471 43.595813 46.546777 46.642059 Q 46.586084 49.688305 46.586084 51.339173 L 35.619599 2.717159 L 23.866986 2.717159 L 12.979113 51.339173 Q 12.979113 49.688305 13.018420 46.642059 Q 13.057726 43.595813 13.057726 41.905638 L 13.057726 2.717159 L 1.776790 2.717159 L 1.776790 60.654790 L 19.386056 60.654790 L 29.920171 15.098675 Z M 94.657808 11.364567 Q 101.850879 11.364567 106.076317 16.670931 Q 110.301755 21.977294 110.301755 31.764587 Q 110.301755 41.512574 106.076317 46.838591 Q 101.850879 52.164608 94.657808 52.164608 Q 87.464737 52.164608 83.180340 46.858244 Q 78.895943 41.551880 78.895943 31.764587 Q 78.895943 21.977294 83.180340 16.670931 Q 87.464737 11.364567 94.657808 11.364567 Z M 122.408125 31.764587 Q 122.408125 16.159947 113.642798 7.866297 Q 107.078630 1.105597 94.657808 1.105597 Q 82.236986 1.105597 75.672818 7.866297 Q 66.868185 16.159947 66.868185 31.764587 Q 66.868185 47.683678 75.672818 55.662877 Q 82.236986 62.423578 94.657808 62.423578 Q 107.078630 62.423578 113.642798 55.662877 Q 122.408125 47.683678 122.408125 31.764587 Z M 140.882132 2.717159 L 126.810442 2.717159 L 145.441674 32.236264 L 127.714489 60.654790 L 142.179243 60.654790 L 152.516826 41.827025 L 163.129553 60.654790 L 177.122631 60.654790 L 159.395445 32.707941 L 178.223210 2.717159 L 163.522617 2.717159 L 152.516826 22.448971 Z" transform="scale(1.000000,1.000000) translate(10.000000,75.000000)" opacity="1.000000"></path>
        <path d="M 10.304529 61.905569 L 104.145428 112.424467 L 44.500550 137.860139 L 53.447599 158.840345 L 143.959907 120.241200 L 135.492777 100.386368 L 40.368120 49.084893 L 102.504900 22.586546 L 93.592131 1.686723 L 1.391760 41.005746 Z" transform="scale(1.000000,1.000000) translate(30.000000,25.000000)" opacity="0.406499"></path>
    </g>
</svg>